<svg xmlns="http://www.w3.org/2000/svg" viewBox="0 0 150 250">
  <defs>
    <linearGradient id="shirtGrad" x1="0%" y1="0%" x2="0%" y2="100%">
      <stop offset="0%" style="stop-color:#6a8aaa;stop-opacity:1" />
      <stop offset="100%" style="stop-color:#5a7a9a;stop-opacity:1" />
    </linearGradient>
  </defs>

  <!-- Shirt body -->
  <path d="M 30,50 Q 25,80 30,110 L 35,140 L 115,140 L 120,110 Q 125,80 120,50 Q 115,35 75,30 Q 35,35 30,50 Z" fill="url(#shirtGrad)"/>

  <!-- Sleeves -->
  <path d="M 30,55 L 15,80 L 22,110 L 38,100 L 40,70 Z" fill="url(#shirtGrad)"/>
  <path d="M 120,55 L 135,80 L 128,110 L 112,100 L 110,70 Z" fill="url(#shirtGrad)"/>

  <!-- Collar -->
  <path d="M 55,30 L 75,45 L 95,30 L 90,25 L 75,35 L 60,25 Z" fill="#4a6a8a"/>

  <!-- Buttons -->
  <circle cx="75" cy="55" r="2" fill="#fff" opacity="0.8"/>
  <circle cx="75" cy="75" r="2" fill="#fff" opacity="0.8"/>
  <circle cx="75" cy="95" r="2" fill="#fff" opacity="0.8"/>
  <circle cx="75" cy="115" r="2" fill="#fff" opacity="0.8"/>

  <!-- Shirt shading -->
  <path d="M 30,50 Q 25,80 30,110 L 35,140 L 75,140 L 75,30 Q 35,35 30,50 Z" fill="#000" opacity="0.1"/>
</svg>